<?xml version="1.0" encoding="utf-8"?>
<!-- Generator: Adobe Illustrator 21.0.0, SVG Export Plug-In . SVG Version: 6.00 Build 0)  -->
<svg version="1.1" id="Layer_1" xmlns="http://www.w3.org/2000/svg" xmlns:xlink="http://www.w3.org/1999/xlink" x="0px" y="0px"
	 viewBox="0 0 16 16" style="enable-background:new 0 0 16 16;" xml:space="preserve">
<style type="text/css">
	.st0{fill:#0071BC;}
</style>
<path class="st0" d="M12.1,7.8L12.1,7.8l0-2.7c0-2.8-2.3-5-5-5C5.7,0,4.4,0.6,3.5,1.5l1.6,1.6c0.5-0.5,1.2-0.8,1.9-0.8
	c1.5,0,2.7,1.2,2.7,2.7v2.7H3.9C3.2,7.8,2.7,8.3,2.7,9v5.8c0,0.7,0.5,1.2,1.2,1.2h8.3c0.7,0,1.2-0.5,1.2-1.2V9
	C13.3,8.3,12.8,7.8,12.1,7.8z M8,10c0.5,0,0.9,0.4,0.9,0.9S8.5,11.9,8,11.9S7.1,11.5,7.1,11S7.5,10,8,10z M6.2,13.8
	C6.2,12.8,7,12,8,12c1,0,1.8,0.8,1.8,1.8H6.2z"/>
</svg>
