<?xml version="1.0" encoding="utf-8"?>
<!-- Generator: Adobe Illustrator 21.0.0, SVG Export Plug-In . SVG Version: 6.00 Build 0)  -->
<svg version="1.1" id="Layer_1" xmlns="http://www.w3.org/2000/svg" xmlns:xlink="http://www.w3.org/1999/xlink" x="0px" y="0px"
	 viewBox="0 0 256 256" style="enable-background:new 0 0 256 256;" xml:space="preserve">
<path d="M194,124.6L194,124.6l0-43.8C194,36.2,157.8,0,113.2,0C90.9,0,70.7,9,56.1,23.7l26.1,26.1c7.9-7.9,18.9-12.8,31-12.8
	c24.2,0,43.8,19.6,43.8,43.8v43.8H62c-10.5,0-19,8.5-19,19V237c0,10.5,8.5,19,19,19h132c10.5,0,19-8.5,19-19v-93.5
	C213,133.1,204.5,124.6,194,124.6z M128,160.2c8.2,0,14.8,6.6,14.8,14.8s-6.6,14.8-14.8,14.8s-14.8-6.6-14.8-14.8
	S119.8,160.2,128,160.2z M99.7,220.4c0-15.6,12.7-28.3,28.3-28.3c15.6,0,28.3,12.7,28.3,28.3H99.7z"/>
</svg>
