<?xml version="1.0" encoding="utf-8"?>
<!-- Generator: Adobe Illustrator 21.0.0, SVG Export Plug-In . SVG Version: 6.00 Build 0)  -->
<svg version="1.1" id="Layer_1" xmlns="http://www.w3.org/2000/svg" xmlns:xlink="http://www.w3.org/1999/xlink" x="0px" y="0px"
	 viewBox="0 0 32 32" style="enable-background:new 0 0 32 32;" xml:space="preserve">
<style type="text/css">
	.st0{fill:#0071BC;}
</style>
<path class="st0" d="M24.3,15.6L24.3,15.6l0-5.5C24.2,4.5,19.7,0,14.1,0C11.4,0,8.8,1.1,7,3l3.3,3.3c1-1,2.4-1.6,3.9-1.6
	c3,0,5.5,2.5,5.5,5.5v5.5H7.8c-1.3,0-2.4,1.1-2.4,2.4v11.7c0,1.3,1.1,2.4,2.4,2.4h16.5c1.3,0,2.4-1.1,2.4-2.4V17.9
	C26.6,16.6,25.6,15.6,24.3,15.6z M16,20c1,0,1.9,0.8,1.9,1.9S17,23.7,16,23.7s-1.9-0.8-1.9-1.9S15,20,16,20z M12.5,27.6
	c0-2,1.6-3.5,3.5-3.5c2,0,3.5,1.6,3.5,3.5H12.5z"/>
</svg>
