<?xml version="1.0" encoding="utf-8"?>
<!-- Generator: Adobe Illustrator 21.0.0, SVG Export Plug-In . SVG Version: 6.00 Build 0)  -->
<svg version="1.1" id="Layer_1" xmlns="http://www.w3.org/2000/svg" xmlns:xlink="http://www.w3.org/1999/xlink" x="0px" y="0px"
	 viewBox="0 0 48 48" style="enable-background:new 0 0 48 48;" xml:space="preserve">
<style type="text/css">
	.st0{fill:#0071BC;}
</style>
<path class="st0" d="M36.4,23.4L36.4,23.4l0-8.2C36.4,6.8,29.6,0,21.2,0c-4.2,0-8,1.7-10.7,4.4l4.9,4.9c1.5-1.5,3.5-2.4,5.8-2.4
	c4.5,0,8.2,3.7,8.2,8.2v8.2H11.6c-2,0-3.6,1.6-3.6,3.6v17.5c0,2,1.6,3.6,3.6,3.6h24.8c2,0,3.6-1.6,3.6-3.6V26.9
	C39.9,25,38.3,23.4,36.4,23.4z M24,30c1.5,0,2.8,1.2,2.8,2.8c0,1.5-1.2,2.8-2.8,2.8s-2.8-1.2-2.8-2.8C21.2,31.3,22.5,30,24,30z
	 M18.7,41.3c0-2.9,2.4-5.3,5.3-5.3c2.9,0,5.3,2.4,5.3,5.3H18.7z"/>
</svg>
