<?xml version="1.0" encoding="utf-8"?>
<!-- Generator: Adobe Illustrator 21.0.0, SVG Export Plug-In . SVG Version: 6.00 Build 0)  -->
<svg version="1.1" id="Layer_1" xmlns="http://www.w3.org/2000/svg" xmlns:xlink="http://www.w3.org/1999/xlink" x="0px" y="0px"
	 viewBox="0 0 372.2 150" style="enable-background:new 0 0 372.2 150;" xml:space="preserve">
<style type="text/css">
	.st0{fill:#0071BC;}
</style>
<path class="st0" d="M88.5,73L88.5,73l0-25.7C88.4,21.2,67.2,0,41.1,0C28,0,16.2,5.3,7.6,13.9L23,29.2c4.6-4.6,11.1-7.5,18.2-7.5
	c14.2,0,25.7,11.5,25.7,25.7V73H11.1C5,73,0,78,0,84.1v54.8C0,145,5,150,11.1,150h77.3c6.1,0,11.1-5,11.1-11.1V84.1
	C99.6,78,94.6,73,88.5,73z M49.8,93.9c4.8,0,8.7,3.9,8.7,8.7s-3.9,8.7-8.7,8.7s-8.7-3.9-8.7-8.7S45,93.9,49.8,93.9z M33.2,129.1
	c0-9.2,7.4-16.6,16.6-16.6c9.1,0,16.6,7.4,16.6,16.6H33.2z"/>
<g>
	<path class="st0" d="M131.4,55.4V43.5h32.4v40.6c0,7.4-1.9,13-5.7,16.7c-3.8,3.7-8.7,5.5-14.7,5.5c-7.5,0-14-2.9-19.6-8.6l7.2-10
		c3.7,4,7.7,6.1,11.8,6.1c2,0,3.6-0.8,5-2.3c1.4-1.5,2.1-3.8,2.1-6.8V55.4H131.4z"/>
	<path class="st0" d="M221.5,49.1c4.4,3.7,6.5,9.4,6.5,17.1c0,7.7-2.2,13.3-6.7,16.9c-4.5,3.6-11.3,5.3-20.5,5.3h-8.3v17.4h-13.9
		V43.5h22C210.2,43.5,217.1,45.4,221.5,49.1z M211.3,73.6c1.7-1.9,2.5-4.6,2.5-8.2c0-3.6-1.1-6.1-3.3-7.7c-2.2-1.5-5.5-2.3-10.1-2.3
		h-7.9v20.9h9.4C206.5,76.4,209.6,75.4,211.3,73.6z"/>
	<path class="st0" d="M277.5,105.8H265V100c-3.4,4.3-7.7,6.5-12.8,6.5c-5.1,0-9.3-1.5-12.8-4.4c-3.4-2.9-5.2-6.9-5.2-11.8
		c0-4.9,1.8-8.6,5.3-11c3.6-2.4,8.4-3.7,14.6-3.7h10v-0.3c0-5.1-2.7-7.7-8.1-7.7c-2.3,0-4.8,0.5-7.4,1.4c-2.6,0.9-4.8,2.1-6.6,3.4
		l-6-8.6c6.3-4.6,13.5-6.9,21.6-6.9c5.8,0,10.6,1.5,14.3,4.4c3.7,2.9,5.5,7.5,5.5,13.8V105.8z M264.1,87.5v-2.3h-8.4
		c-5.3,0-8,1.7-8,5c0,1.7,0.6,3,1.9,4c1.3,0.9,3.1,1.4,5.5,1.4c2.4,0,4.5-0.7,6.3-2.2C263.2,91.9,264.1,90,264.1,87.5z"/>
	<path class="st0" d="M325.8,90.9c0,4.7-1.7,8.5-5.2,11.4c-3.5,2.9-7.9,4.3-13.2,4.3c-3.6,0-7.3-0.6-11.1-1.9
		c-3.9-1.3-7.3-3.2-10.4-5.7l5.9-8.4c5,3.9,10.3,5.8,16,5.8c1.7,0,3.1-0.3,4.1-1c1-0.7,1.5-1.6,1.5-2.7c0-1.1-0.7-2.2-2.1-3.1
		c-1.4-0.9-3.4-1.8-6.1-2.7c-2.6-0.8-4.7-1.5-6.1-2.1c-1.4-0.6-3-1.5-4.8-2.6c-3.6-2.3-5.4-5.6-5.4-10c0-4.4,1.8-8,5.3-10.8
		c3.6-2.8,8.2-4.2,13.8-4.2c5.6,0,11.3,1.9,16.9,5.7l-5,8.9c-4.2-2.9-8.3-4.3-12.4-4.3c-4.1,0-6.2,1.1-6.2,3.4c0,1.2,0.7,2.2,2,2.9
		c1.3,0.7,3.5,1.5,6.5,2.5c3,1,5.2,1.7,6.5,2.2c1.3,0.5,2.8,1.3,4.6,2.4C324.2,82.8,325.8,86.1,325.8,90.9z"/>
	<path class="st0" d="M372.2,90.9c0,4.7-1.7,8.5-5.2,11.4c-3.5,2.9-7.9,4.3-13.2,4.3c-3.6,0-7.3-0.6-11.1-1.9
		c-3.9-1.3-7.3-3.2-10.4-5.7l5.9-8.4c5,3.9,10.3,5.8,16,5.8c1.7,0,3.1-0.3,4.1-1c1-0.7,1.5-1.6,1.5-2.7c0-1.1-0.7-2.2-2.1-3.1
		c-1.4-0.9-3.4-1.8-6.1-2.7c-2.6-0.8-4.7-1.5-6.1-2.1c-1.4-0.6-3-1.5-4.8-2.6c-3.6-2.3-5.4-5.6-5.4-10c0-4.4,1.8-8,5.3-10.8
		c3.6-2.8,8.2-4.2,13.8-4.2c5.6,0,11.3,1.9,16.9,5.7l-5,8.9c-4.2-2.9-8.3-4.3-12.4-4.3s-6.2,1.1-6.2,3.4c0,1.2,0.7,2.2,2,2.9
		c1.3,0.7,3.5,1.5,6.5,2.5c3,1,5.2,1.7,6.5,2.2c1.3,0.5,2.8,1.3,4.6,2.4C370.5,82.8,372.2,86.1,372.2,90.9z"/>
</g>
</svg>
