<?xml version="1.0" encoding="utf-8"?>
<!-- Generator: Adobe Illustrator 21.0.0, SVG Export Plug-In . SVG Version: 6.00 Build 0)  -->
<svg version="1.1" id="Layer_1" xmlns="http://www.w3.org/2000/svg" xmlns:xlink="http://www.w3.org/1999/xlink" x="0px" y="0px"
	 viewBox="0 0 620.3 250" style="enable-background:new 0 0 620.3 250;" xml:space="preserve">
<path d="M147.4,121.7L147.4,121.7l0-42.8C147.4,35.3,112.1,0,68.5,0C46.7,0,27,8.8,12.7,23.1l25.5,25.5c7.7-7.7,18.4-12.5,30.3-12.5
	c23.6,0,42.8,19.2,42.8,42.8v42.8H18.5C8.3,121.7,0,130,0,140.2v91.3C0,241.7,8.3,250,18.5,250h128.9c10.2,0,18.5-8.3,18.5-18.5
	v-91.3C166,130,157.7,121.7,147.4,121.7z M83,156.4c8,0,14.5,6.5,14.5,14.5c0,8-6.5,14.5-14.5,14.5s-14.5-6.5-14.5-14.5
	C68.5,162.9,75,156.4,83,156.4z M55.4,215.2c0-15.3,12.4-27.6,27.6-27.6c15.2,0,27.6,12.4,27.6,27.6H55.4z"/>
<g>
	<path d="M219,92.4V72.5H273v67.7c0,12.4-3.2,21.6-9.6,27.8c-6.4,6.1-14.6,9.2-24.6,9.2c-12.5,0-23.4-4.8-32.7-14.4l12-16.6
		c6.2,6.7,12.8,10.1,19.6,10.1c3.3,0,6.1-1.3,8.4-3.8c2.3-2.5,3.5-6.3,3.5-11.4V92.4H219z"/>
	<path d="M369.2,81.8c7.3,6.2,10.9,15.7,10.9,28.5c0,12.8-3.7,22.2-11.2,28.1c-7.5,5.9-18.9,8.9-34.2,8.9h-13.8v29h-23.2V72.5h36.7
		C350.3,72.5,361.9,75.6,369.2,81.8z M352.2,122.6c2.8-3.1,4.2-7.7,4.2-13.7c0-6-1.8-10.2-5.4-12.8c-3.6-2.5-9.2-3.8-16.9-3.8h-13.2
		v34.9h15.6C344.2,127.3,349.4,125.7,352.2,122.6z"/>
	<path d="M462.5,176.3h-20.9v-9.7c-5.7,7.2-12.8,10.8-21.3,10.8c-8.5,0-15.6-2.4-21.3-7.4c-5.7-4.9-8.6-11.4-8.6-19.6
		c0-8.2,3-14.3,8.9-18.3c5.9-4.1,14.1-6.1,24.4-6.1h16.6v-0.4c0-8.5-4.5-12.8-13.5-12.8c-3.9,0-7.9,0.8-12.3,2.3
		c-4.3,1.5-7.9,3.4-10.9,5.7l-10-14.4c10.5-7.6,22.5-11.4,35.9-11.4c9.7,0,17.6,2.4,23.8,7.3c6.1,4.9,9.2,12.5,9.2,23V176.3z
		 M440.1,145.9V142h-14c-8.9,0-13.4,2.8-13.4,8.3c0,2.9,1.1,5.1,3.2,6.6c2.1,1.5,5.2,2.3,9.1,2.3c4,0,7.4-1.2,10.5-3.6
		C438.6,153.2,440.1,149.9,440.1,145.9z"/>
	<path d="M543,151.4c0,7.9-2.9,14.2-8.7,18.9c-5.8,4.8-13.1,7.1-22.1,7.1c-5.9,0-12.1-1.1-18.6-3.2c-6.4-2.1-12.2-5.3-17.4-9.4
		l9.8-14c8.3,6.4,17.2,9.7,26.6,9.7c2.9,0,5.1-0.6,6.8-1.7c1.7-1.1,2.5-2.6,2.5-4.5c0-1.9-1.2-3.6-3.5-5.2
		c-2.3-1.6-5.7-3.1-10.1-4.5c-4.4-1.4-7.8-2.6-10.1-3.6c-2.3-1-5-2.4-7.9-4.3c-6-3.8-9.1-9.3-9.1-16.7c0-7.4,3-13.4,8.9-18
		c5.9-4.7,13.6-7,23-7c9.4,0,18.8,3.2,28.2,9.5l-8.3,14.9c-6.9-4.8-13.8-7.1-20.7-7.1s-10.3,1.9-10.3,5.6c0,2.1,1.1,3.7,3.3,4.9
		c2.2,1.2,5.8,2.6,10.8,4.2c5,1.6,8.6,2.8,10.8,3.6c2.1,0.8,4.7,2.2,7.6,3.9C540.3,137.9,543,143.6,543,151.4z"/>
	<path d="M620.3,151.4c0,7.9-2.9,14.2-8.7,18.9c-5.8,4.8-13.1,7.1-22.1,7.1c-5.9,0-12.1-1.1-18.6-3.2c-6.4-2.1-12.2-5.3-17.4-9.4
		l9.8-14c8.3,6.4,17.2,9.7,26.6,9.7c2.9,0,5.1-0.6,6.8-1.7c1.7-1.1,2.5-2.6,2.5-4.5c0-1.9-1.2-3.6-3.5-5.2
		c-2.3-1.6-5.7-3.1-10.1-4.5c-4.4-1.4-7.8-2.6-10.1-3.6c-2.3-1-5-2.4-7.9-4.3c-6-3.8-9.1-9.3-9.1-16.7c0-7.4,3-13.4,8.9-18
		c5.9-4.7,13.6-7,23-7c9.4,0,18.8,3.2,28.2,9.5l-8.3,14.9c-6.9-4.8-13.8-7.1-20.7-7.1c-6.9,0-10.3,1.9-10.3,5.6
		c0,2.1,1.1,3.7,3.3,4.9c2.2,1.2,5.8,2.6,10.8,4.2c5,1.6,8.6,2.8,10.8,3.6c2.1,0.8,4.7,2.2,7.6,3.9
		C617.5,137.9,620.3,143.6,620.3,151.4z"/>
</g>
</svg>
