<?xml version="1.0" encoding="utf-8"?>
<!-- Generator: Adobe Illustrator 21.0.0, SVG Export Plug-In . SVG Version: 6.00 Build 0)  -->
<svg version="1.1" id="Layer_1" xmlns="http://www.w3.org/2000/svg" xmlns:xlink="http://www.w3.org/1999/xlink" x="0px" y="0px"
	 viewBox="0 0 128 128" style="enable-background:new 0 0 128 128;" xml:space="preserve">
<style type="text/css">
	.st0{fill:#0071BC;}
</style>
<path class="st0" d="M97,62.3L97,62.3l0-21.9C97,18.1,78.9,0,56.6,0C45.4,0,35.4,4.5,28,11.8l13.1,13.1c4-4,9.4-6.4,15.5-6.4
	c12.1,0,21.9,9.8,21.9,21.9v21.9H31c-5.2,0-9.5,4.2-9.5,9.5v46.7c0,5.2,4.2,9.5,9.5,9.5h66c5.2,0,9.5-4.2,9.5-9.5V71.8
	C106.5,66.6,102.2,62.3,97,62.3z M64,80.1c4.1,0,7.4,3.3,7.4,7.4s-3.3,7.4-7.4,7.4s-7.4-3.3-7.4-7.4S59.9,80.1,64,80.1z M49.9,110.2
	c0-7.8,6.3-14.1,14.1-14.1c7.8,0,14.1,6.3,14.1,14.1H49.9z"/>
</svg>
