<?xml version="1.0" standalone="no"?>
<!DOCTYPE svg PUBLIC "-//W3C//DTD SVG 20010904//EN"
 "http://www.w3.org/TR/2001/REC-SVG-20010904/DTD/svg10.dtd">
<svg version="1.0" xmlns="http://www.w3.org/2000/svg"
 width="16" height="16" viewBox="0 0 512.000000 512.000000"
 preserveAspectRatio="xMidYMid meet">

<g transform="translate(0.000000,512.000000) scale(0.100000,-0.100000)"
fill="#000000" stroke="none">
<path d="M2390 4190 c-401 -50 -752 -223 -1015 -501 -523 -553 -601 -1383
-189 -2017 258 -398 659 -656 1139 -733 115 -19 388 -16 505 5 465 84 851 339
1102 726 179 275 262 559 262 890 0 166 -9 248 -45 395 -153 618 -667 1102
-1293 1215 -128 24 -357 33 -466 20z m530 -1746 c-256 -256 -477 -472 -492
-480 -15 -8 -49 -14 -76 -14 -38 0 -57 6 -88 29 -21 16 -149 140 -284 275
l-245 246 110 110 110 110 200 -200 200 -200 405 405 405 405 110 -110 110
-110 -465 -466z"/>
</g>
</svg>
