<?xml version="1.0" standalone="no"?><!DOCTYPE svg PUBLIC "-//W3C//DTD SVG 1.1//EN" "http://www.w3.org/Graphics/SVG/1.1/DTD/svg11.dtd"><svg t="1666168842019" class="icon" viewBox="0 0 1024 1024" version="1.1" xmlns="http://www.w3.org/2000/svg" p-id="2625" width="16" height="16" xmlns:xlink="http://www.w3.org/1999/xlink"><path d="M512 0a512 512 0 1 1 0 1024A512 512 0 0 1 512 0zM130.752 409.472c-4.736 4.736-4.736 4.736 0 9.344-12.608 20.416-39.68 22.912-59.072 10.624a448.128 448.128 0 0 0 372.096 525.376l-0.384-0.32-7.68-3.84c14.4-4.608 33.472-4.608 47.68-4.608-4.736-28.032-4.736-51.264-4.736-79.36 0 0-109.568-79.232-109.568-125.952s14.272-69.952 0-69.952c-23.872 0-52.48 18.688-57.216 0-9.536-28.032-28.608-51.328-57.216-60.608-65.6 0-75.008-70.656-76.16-143.488l-0.064-19.84c0-23.424-28.608-23.424-47.68-37.376z m408.32-344.64l5.504 1.472c72.576 22.144 74.688 95.36 15.104 86.4 0 23.232 0 51.2-4.736 79.232-4.8 46.72-62.016 32.768-76.288 56.064-14.208 23.36 28.608 46.656 76.288 37.312 14.272 0 0-14.08 9.6-18.688 19.008-4.608 42.816-4.608 61.888 0a999.872 999.872 0 0 1-66.752 121.408c-9.6 13.952 0 41.984 0 60.608 0 140.096-66.752-32.64-76.288-27.968-9.536 9.344-52.352-9.344-71.424-9.344-19.072 0-9.6 37.312-28.608 37.312-38.144 0-28.608-9.344-28.608 4.608 0 18.688 4.672 56.064 4.672 112.064 0 18.688 38.144-4.608 61.952-4.608 28.608 0 47.68 23.296 66.752 32.64 33.28 14.08 66.688 60.736 90.496 65.28 23.808 4.8 4.736 42.048 33.28 37.376 14.272-4.608 33.344 4.736 42.88 18.688 14.336 18.688 4.8 42.112-14.272 56.064-28.544 27.968-38.08 60.608-52.352 125.952 7.808-2.56 17.024 3.968 24.64 11.84a448.64 448.64 0 0 0 318.144-277.504c-36.224 38.464-78.08 41.408-65.664 8.832-14.336-27.968-33.408-51.392-57.216-74.688-42.944-37.312-81.088-107.392 52.416-205.44-20.672-52.608 30.528-101.76 63.04-64.896a448 448 0 0 0-384.384-270.08z" p-id="2626"></path></svg>