<?xml version="1.0" encoding="utf-8"?><!-- Uploaded to: SVG Repo, www.svgrepo.com, Generator: SVG Repo Mixer Tools -->
<svg fill="#000000" width="16" height="16" viewBox="0 -8 72 72" id="Layer_1" data-name="Layer 1" xmlns="http://www.w3.org/2000/svg"><title>world</title><path d="M59.25,12.42l-.83.27L54,13.08l-1.27,2-.91-.29L48.23,11.6l-.52-1.66L47,8.16l-2.23-2-2.63-.51-.06,1.2,2.58,2.52,1.26,1.48-1.42.75-1.15-.34-1.73-.73,0-1.39L39.42,8.2l-.75,3.29L36.38,12l.23,1.84,3,.57.52-2.93,2.46.37,1.14.67h1.84L46.8,15l3.34,3.38-.25,1.32-2.69-.34-4.64,2.34-3.34,4-.43,1.78H37.58l-2.23-1-2.17,1,.54,2.29.94-1.09,1.67,0-.12,2,1.38.4L39,32.67,41.2,32l2.57.4,3,.8,1.48.18,2.52,2.86,4.87,2.86-3.15,6-3.32,1.54-1.26,3.44-4.81,3.21-.51,1.85A28,28,0,0,0,59.25,12.42Z"/><path d="M39.22,42.63l-2-3.78L39.05,35l-1.87-.56-2.1-2.11-4.66-1L28.88,28v1.92H28.2l-4-5.44V20l-2.94-4.78-4.67.83H13.43l-1.59-1,2-1.6-2,.46A28,28,0,0,0,36,56a29,29,0,0,0,3.51-.25l-.29-3.39s1.29-5,1.29-5.2S39.22,42.63,39.22,42.63Z"/><path d="M18.41,9l5-.7,2.29-1.25,2.58.74,4.12-.23,1.42-2.22,2.05.34,5-.47,1.38-1.52,2-1.29,2.74.41,1-.15a27.91,27.91,0,0,0-33.51,7.49h0ZM37.18,2.78,40,1.21l1.84,1.06-2.66,2-2.54.26-1.14-.74ZM28.71,3,30,3.54,31.63,3l.9,1.56-3.82,1L26.88,4.5S28.67,3.35,28.71,3Z"/></svg>